<svg height="512" viewBox="0 0 60 60" width="512" xmlns="http://www.w3.org/2000/svg"><g id="Page-1" fill="#827F7F" fill-rule="#827F7F"><g id="050---Web-Connections" fill="#827F7F" fill-rule="nonzero" transform="translate(-1 -1)"><path id="Shape" d="m57 31c.0081461-3.5303215-.7139798-7.0241719-2.121-10.262 3.559-5.444 8.567-14.622 4.778-18.395-3.068-3.071-9.7-.339-15 2.692-.9059505-.82787993-2.1450321-1.18802893-3.3536032-.97475166-1.2085712.21327726-2.2495365.97578746-2.8173968 2.06375166-5.8478324-1.78666559-12.1408339-1.43215027-17.751 1-5.443-3.561-14.621-8.567-18.392-4.781-3.07 3.07-.339 9.706 2.692 15-.82787993.9059505-1.18802893 2.1450321-.97475166 3.3536032.21327726 1.2085712.97578746 2.2495365 2.06375166 2.8173968-1.49866035 4.8802026-1.49866035 10.0977974 0 14.978-1.08690925.5680421-1.84860967 1.6083885-2.06183958 2.816104-.21322991 1.2077154.14616387 2.4459982.97283958 3.351896-3.035 5.291-5.762 11.927-2.693 14.996 1.01123175.9412525 2.36271297 1.4291871 3.742 1.351 4.427 0 10.583-3.468 14.655-6.127 5.6099549 2.4315606 11.9024323 2.7860664 17.75 1 .568342 1.0883952 1.6100659 1.8509949 2.8193176 2.0638968 1.2092516.2129019 2.4487902-.1480566 3.3546824-.9768968 3.65 2.092 7.933 4.042 11.253 4.042 1.37788.0776564 2.728055-.4086232 3.74-1.347 3.79-3.774-1.218-12.951-4.777-18.4 1.4072136-3.2377668 2.1293481-6.731658 2.121-10.262zm-3.471 8.261c-.767-1.1-1.6-2.244-2.492-3.412 2.6188845-2.7030326 2.6188845-6.9969674 0-9.7.889-1.168 1.725-2.31 2.492-3.412 1.9613339 5.3327102 1.9613339 11.1892898 0 16.522zm-32.972 13.332c-3.8030701-1.8354881-7.0522132-4.6454086-9.417-8.144.9431291-1.1888676 1.1266468-2.8111428.4729307-4.1806514-.6537161-1.3695087-2.03046796-2.2470106-3.5479307-2.2613486-1.42001433-4.5634176-1.42001433-9.4505824 0-14.014 1.51746274-.014338 2.8942146-.8918399 3.5479307-2.2613486.6537161-1.3695086.4701984-2.9917838-.4729307-4.1806514 2.364525-3.4985748 5.6137611-6.3082307 9.417-8.143 3.4091049 2.3170417 6.6793861 4.8320262 9.794 7.532 2.526 2.158 5.093 4.539 7.632 7.077.945.945 1.784 1.808 2.552 2.62-2.0466954 2.5486252-2.0466954 6.1773748 0 8.726-.768.812-1.607 1.675-2.552 2.62-2.539 2.538-5.106 4.919-7.635 7.08-3.1137898 2.6990826-6.3830593 5.2133916-9.791 7.53zm20.443-21.593c0-2.7614237 2.2385763-5 5-5s5 2.2385763 5 5-2.2385763 5-5 5c-2.7600532-.0033061-4.9966939-2.2399468-5-5zm17.244-27.242c1.888 1.882.168 7.634-4.382 14.867-1.9656511-3.6298467-4.7701888-6.7374664-8.18-9.064.3925233-.90505109.4229461-1.92618589.085-2.853 6.084-3.459 10.833-4.596 12.477-2.95zm-16.244 2.242c1.1045695 0 2 .8954305 2 2s-.8954305 2-2 2-2-.8954305-2-2 .8954305-2 2-2zm-3.993 2.065c.014338 1.51746274.8918399 2.8942146 2.2613486 3.5479307 1.3695086.6537161 2.9917838.4701984 4.1806514-.4729307 3.5021891 2.3648328 6.3147485 5.6159597 8.151 9.422-.936 1.388-1.987 2.849-3.136 4.36-2.3439636-1.3444118-5.254464-1.2094931-7.464.346-.783-.827-1.637-1.705-2.6-2.665-2.575-2.575-5.182-4.992-7.745-7.181-2.8538748-2.4676398-5.8331685-4.7863887-8.926-6.947 4.909692-1.81489127 10.2810522-1.95900865 15.281-.41zm-34.249-4.309c1.881-1.888 7.633-.166 14.867 4.382-3.6296624 1.9655266-6.7369833 4.770104-9.063 8.18-.49396878-.2100116-1.02524122-.3181707-1.562-.318-.440672.0048076-.87740946.0835691-1.292.233-3.459-6.086-4.597-10.833-2.95-12.477zm4.242 14.244c1.1045695 0 2 .8954305 2 2s-.8954305 2-2 2-2-.8954305-2-2 .8954305-2 2-2zm0 22c1.1045695 0 2 .8954305 2 2s-.8954305 2-2 2-2-.8954305-2-2 .8954305-2 2-2zm-4.243 18.243c-1.646-1.646-.508-6.39 2.951-12.476.41459054.1494309.851328.2281924 1.292.233.53675878.0001707 1.06803122-.1079884 1.562-.318 2.3254703 3.4100064 5.4324993 6.2146298 9.062 8.18-7.234 4.548-12.986 6.269-14.867 4.381zm18.97-4.718c3.0909753-2.1603207 6.0689016-4.4780431 8.922-6.944 2.566-2.192 5.173-4.609 7.748-7.184.961-.961 1.815-1.838 2.6-2.665 2.209536 1.5554931 5.1200364 1.6904118 7.464.346 1.149 1.511 2.2 2.972 3.136 4.36-1.834585 3.8056175-4.6454251 7.0567513-8.146 9.422-1.1888676-.9431291-2.8111428-1.1266468-4.1806514-.4729307-1.3695087.6537161-2.2470106 2.030468-2.2613486 3.5479307-4.9996087 1.549007-10.3706529 1.4048887-15.28-.41zm19.273 2.475c-1.1045695 0-2-.8954305-2-2s.8954305-2 2-2 2 .8954305 2 2-.8954305 2-2 2zm16.243 2.243c-1.645 1.646-6.389.51-12.476-2.951.3379461-.9268141.3075233-1.9479489-.085-2.853 3.410016-2.3262991 6.2146031-5.4339736 8.18-9.064 4.55 7.233 6.27 12.986 4.381 14.868z"/></g></g></svg>